<?xml version="1.0" encoding="utf-8"?>
<!-- Generator: Adobe Illustrator 26.0.3, SVG Export Plug-In . SVG Version: 6.00 Build 0)  -->
<svg version="1.1" id="Layer_1" xmlns="http://www.w3.org/2000/svg" xmlns:xlink="http://www.w3.org/1999/xlink" x="0px" y="0px"
	 viewBox="0 0 347.2 46.1" style="enable-background:new 0 0 347.2 46.1;" xml:space="preserve">
<style type="text/css">
	.st0{fill:#1D1D1B;}
</style>
<path class="st0" d="M145.6,35.2c5.2,0,8.8-2,11.2-6.6l0.5,5.9h4.4V15.6h-14.6v5h8.3v0.1c0,6.7-4.1,9.2-8.4,9.2c-5.6,0-9-4.9-9-12.2
	c0-7.7,3.5-12.4,9.4-12.4c3.4,0,6,1.8,7.5,4.4c0.2,0.4,0.5,0.9,0.7,1.4l6.3-2.2c-0.3-0.7-0.5-1.3-1-1.9c-2.7-4.3-7.3-6.9-13.5-6.9
	c-9.6,0-16.3,7.3-16.3,17.8C131.1,28.1,137,35.1,145.6,35.2"/>
<polygon class="st0" points="100.2,34.5 105.9,34.5 105.9,6.8 123.3,34.5 128.1,34.5 128.1,0.7 122.4,0.7 122.4,22.6 108.6,0.7 
	100.2,0.7 "/>
<rect x="88.8" y="0.7" class="st0" width="6.3" height="33.8"/>
<polygon class="st0" points="68.2,29.9 68.2,18.8 81.4,18.8 81.4,14 68.2,14 68.2,6 83.7,6 83.7,0.9 62.5,0.9 62.5,34.5 84.2,34.5 
	84.2,29.9 "/>
<polygon class="st0" points="32.6,34.5 58.8,34.5 58.8,29.3 38.9,29.3 38.9,18.9 54.1,18.9 54.1,14 38.9,14 38.9,6 57.6,6 57.6,0.9 
	32.6,0.9 "/>
<path class="st0" d="M14.8,35.1c8.2,0,13.8-4.5,13.8-10.8c0-5.1-3.3-8.2-10.2-9.6l-5.7-1.2c-3.2-0.7-4.6-2-4.6-4.1
	c0-2.5,2.5-4.1,6.3-4.1c3.3,0,5.9,1.6,7.3,3.9c0.1,0.3,0.3,0.7,0.5,1.1L28,8.7c-0.1-0.4-0.3-0.8-0.6-1.2c-2.2-4.2-7.1-7.3-13-7.3
	C7.1,0.2,1.9,4.2,1.9,9.9c0,4.8,2.9,7.7,9.2,9.3l5.2,1.2c4,1,5.7,2.3,5.7,4.6c0,2.9-2.7,4.9-7,4.9c-4.1,0-7.3-1.8-8.8-5
	c-0.2-0.4-0.4-0.9-0.6-1.3L0,25.2l0.4,1.2C2.7,31.9,7.9,35.1,14.8,35.1"/>
<path class="st0" d="M179.7,9.4l-0.4,0.2l-0.1,0.1c-0.2,0.2-0.3,0-0.3,0.3v0.5v0.2V11v31.5c0,0.3,0.1,0.2,0.1,0.3
	c0,0.1,0,0.1,0.1,0.2c0.1,0.1,0.1,0.2,0.2,0.2c0.1,0,0,0,0.1,0.1c0.1,0.1,0.2,0,0.2,0.1c0,0.1,0,0.1,0.1,0.1h0.2
	c0,0,0.1,0.1,0.2,0.1h0.2c0.1,0,0.2-0.1,0.3-0.1h3.7c0,0,0.2-0.1,0.3-0.1c0.1,0,0.1-0.1,0.2-0.2c0.1-0.1,0.2-0.1,0.2-0.4v-1V29.5
	c0-0.4,0-0.4,0.1-0.5c0.1-0.1,0.2-0.2,0.3-0.2c0.1,0,0.1-0.1,0.2-0.1h0.2h11.6h0.2c0.1,0,0.1,0,0.2-0.1c0.1-0.1,0.1,0,0.2-0.1
	c0.1-0.1,0.1-0.2,0.2-0.3c0.1-0.1,0.2-0.2,0.3-0.3c0.1-0.1,0.2-0.3,0.2-0.4v-3.1c0-0.2,0-0.3-0.1-0.4c-0.1-0.1-0.1,0-0.2-0.2
	c-0.1-0.2-0.2-0.2-0.3-0.3c-0.1-0.1-0.2,0-0.3-0.1c-0.1-0.1-0.4-0.2-0.6-0.2h-11.1c-0.2,0-0.2-0.1-0.4-0.1c-0.2,0-0.2-0.1-0.4-0.1
	c-0.2,0-0.2,0-0.3-0.1c-0.1-0.1,0-7.9,0-8.1s0-0.4,0.1-0.4c0.1,0,0.1-0.1,0.2-0.1c0.1,0,0.2-0.1,0.3-0.1c0.1,0,0,0.1,0.2,0
	c0.2-0.1,13.7,0,13.7,0s0.3,0,0.6-0.1c0.3-0.1,0.2-0.1,0.4-0.2c0.2-0.1,0.3-0.1,0.4-0.2c0.1-0.1,0.2-0.3,0.2-0.4V10
	c0-0.1,0-0.1-0.2-0.2c-0.2-0.1-0.2-0.1-0.3-0.2c-0.1-0.1-0.2,0-0.3-0.1c-0.1-0.1-0.1-0.2-0.3-0.2h-0.4h-0.3c-0.1,0-0.1,0.1-0.2,0.1
	c-0.1,0-0.1,0.1-0.4,0.1h-17.5c-0.3,0-0.3-0.1-0.4-0.1c-0.1,0-0.1,0.1-0.3,0c-0.2-0.1-0.4-0.1-0.4-0.1H180
	C179.9,9.4,179.9,9.3,179.7,9.4"/>
<path class="st0" d="M226.1,27.6c-0.1,0.4-0.1,1-0.1,1.3c0,0.3,0,0.5-0.1,0.9c-0.1,0.5-0.2,0.7-0.3,1.1c-0.1,0.4-0.2,0.4-0.2,0.7
	s0.1,0.5-0.2,0.7s-0.3,0.6-0.5,0.8c-0.2,0.3-0.1,0.7-0.2,0.8c-0.1,0.2,0,0.4-0.3,0.7c-0.3,0.3-0.7,0.7-0.8,1
	c-0.2,0.3-0.3,0.4-0.5,0.5c-0.2,0.1-0.3,0.3-0.5,0.5c-0.2,0.2-0.7,0.7-0.8,0.7c-0.2,0.1-0.2,0.2-0.5,0.4c-0.3,0.2-0.4,0.3-0.7,0.3
	c-0.3,0-0.6,0.3-1,0.4c-0.5,0.1-0.7,0.2-0.9,0.2c-0.3,0-0.6,0.1-0.7,0.1c-0.2,0-0.6,0.1-0.7,0c-0.2-0.1-0.3,0-0.4,0
	c-0.1,0-0.5,0-0.6-0.1c-0.1-0.1-0.5-0.1-0.7-0.1c-0.2,0-0.4-0.1-0.6-0.2c-0.2-0.1-0.7-0.2-0.9-0.3c-0.3-0.1-0.5,0-0.8-0.2
	c-0.4-0.2-0.5-0.4-0.7-0.5c-0.2-0.1-0.3-0.3-0.7-0.7c-0.4-0.4-0.6-0.5-0.7-0.7c-0.2-0.2-0.3-0.3-0.4-0.5c-0.1-0.2-0.4-0.6-0.6-0.7
	c-0.2-0.2-0.1-0.3-0.3-0.6c-0.2-0.3,0-0.4-0.4-0.9c-0.4-0.6-0.4-0.9-0.7-1.4c-0.3-0.5-0.3-0.7-0.4-1c-0.1-0.4-0.1-0.9-0.2-1.3
	c-0.1-0.4-0.1-0.8-0.2-1.1c-0.1-0.3-0.1-0.6,0-0.8c0.1-0.3-0.1-0.7,0-0.9c0.1-0.3,0.1-0.6,0-0.8c-0.1-0.3,0-0.7,0-1
	c0-0.3,0.1-0.7,0.2-0.9c0.1-0.3,0.1-0.7,0.1-0.9c0-0.3,0-0.3,0.1-0.6c0.1-0.3,0.2-0.7,0.3-1c0.1-0.4,0.1-0.5,0.2-0.8
	c0.1-0.4,0.5-0.7,0.6-0.9c0.1-0.3,0.1-0.7,0.4-1c0.3-0.4,0.3-0.5,0.6-0.8c0.3-0.4,0.7-0.8,0.9-1c0.2-0.2,0.2-0.3,0.5-0.4
	c0.3-0.1,0.2-0.5,0.6-0.7c0.4-0.2,0.7-0.6,0.8-0.7c0.2-0.1,0.7-0.4,1.1-0.4c0.4,0,0.7-0.1,0.9-0.1c0.3,0,1-0.2,1.3-0.3
	c0.3-0.1,0.5,0,0.7,0h0.4c0.1,0,0.5,0.1,0.6,0.1c0.1,0,0.6,0.1,0.9,0.1c0.4,0,0.5,0.1,0.7,0.2c0.2,0.1,0.4,0,0.6,0.2
	c0.2,0.2,0.4,0.2,0.6,0.3c0.2,0.1,0.7,0.2,0.7,0.4c0.1,0.2,0.6,0.6,0.8,0.7c0.3,0.2,0.3,0.2,0.7,0.7c0.4,0.5,0.7,0.7,0.8,0.8
	c0.1,0.2,0.1,0.4,0.3,0.6s0.4,0.8,0.6,1.2c0.2,0.4,0.2,1,0.4,1.2c0.2,0.2,0.3,0.7,0.3,1s0.5,0.9,0.5,1.2c0,0.3,0.1,0.6-0.1,0.8
	c-0.2,0.3,0,0.5,0,0.7s0.1,0.7,0.2,1c0.1,0.4,0,0.7,0,1C226.1,27,226.2,27.2,226.1,27.6 M233.4,25.3c-0.1-0.3-0.3-0.5-0.2-0.8
	c0.1-0.4-0.2-1.9-0.3-2c-0.1-0.2-0.3-0.7-0.4-1.1c-0.1-0.4-0.1-0.8-0.2-1.2c-0.1-0.4-0.4-0.7-0.4-0.9c0-0.2-0.2-0.9-0.4-1.1
	c-0.2-0.2-0.2-0.3-0.4-0.7c-0.2-0.4-0.5-0.8-0.7-1.1c-0.2-0.3-0.2-0.3-0.4-0.7c-0.2-0.4-0.3-0.5-0.6-0.8c-0.3-0.4-0.6-0.6-0.7-0.7
	c-0.2-0.2-0.3-0.6-0.6-0.8c-0.3-0.3-0.5-0.3-0.7-0.6c-0.2-0.3-0.7-0.6-0.9-0.7c-0.2-0.1-0.7-0.7-1-0.8c-0.4-0.2-0.6-0.4-0.9-0.6
	c-0.4-0.2-0.3-0.1-0.7-0.4c-0.4-0.3-0.3-0.3-0.7-0.4c-0.5-0.1-0.7,0-0.9-0.2c-0.3-0.2-0.7-0.3-1-0.4c-0.4-0.1-0.6,0-0.8-0.2
	c-0.3-0.2-0.5-0.2-0.7-0.2c-0.3,0-0.5,0.1-0.6-0.1c-0.1-0.2-0.3-0.2-0.7-0.2c-0.4,0-0.1,0.2-0.6,0c-0.5-0.2-0.6-0.1-0.9-0.1
	c-0.4,0-0.5-0.2-0.7-0.1c-0.3,0.1-0.4,0.1-0.7,0.2c-0.4,0.1-0.3,0-0.7,0.1c-0.4,0.1-0.4,0.2-0.7,0.2c-0.3,0-0.4,0.1-0.6,0.1
	s-0.1,0.1-0.4,0.1c-0.3,0-0.4,0.2-0.6,0.2s-0.1,0.2-0.5,0.2c-0.4,0-0.4,0.1-0.7,0.2c-0.3,0.1-0.4,0.1-0.7,0.2
	c-0.3,0.1-0.7,0.1-0.7,0.2c-0.1,0.1-0.2,0.3-0.4,0.3s-0.5,0.3-0.5,0.3s-0.1,0.1-0.3,0.2c-0.2,0.1-0.6,0.3-0.7,0.5s-0.3,0.3-0.6,0.4
	c-0.3,0.1-0.6,0.4-0.7,0.5c-0.1,0.1-0.1,0.3-0.4,0.4c-0.3,0.1-0.6,0.3-0.7,0.6c-0.2,0.3-0.2,0.5-0.4,0.7s-0.3,0.7-0.5,0.8
	c-0.2,0.1-0.2,0.2-0.5,0.4c-0.3,0.2-0.7,0.7-0.8,0.9c-0.2,0.3-0.5,0.7-0.6,0.9c-0.1,0.3-0.3,0.7-0.4,1c-0.1,0.3-0.3,0.7-0.5,0.8
	c-0.2,0.2-0.3,0.7-0.5,1c-0.2,0.4-0.3,1.4-0.4,1.7c-0.1,0.3-0.5,1.3-0.5,1.8c0,0.5-0.1,0.9-0.2,1.2c-0.1,0.3-0.2,0.7-0.2,0.8
	s-0.1,0.4,0,0.7c0.1,0.4,0.1,0.2,0,0.7c-0.1,0.5-0.1,0.8,0,1.4c0.1,0.6,0.1,0.7,0.2,1.2c0.1,0.5,0.1,0.7,0.2,1.1
	c0.1,0.5,0.2,1.1,0.3,1.4c0.1,0.3,0.5,0.6,0.5,0.8s0.1,0.5,0.3,1c0.2,0.6,0.3,0.8,0.5,1.4c0.2,0.6,0.6,1,0.7,1.4
	c0.2,0.4,0.4,1.1,0.7,1.5c0.4,0.4,0.7,0.7,0.9,0.8c0.3,0.2,0.4,0.3,0.7,0.7c0.3,0.5,0.2,0.4,0.7,0.7c0.5,0.4,0.4,0.4,0.7,0.6
	c0.4,0.2,0.4,0.1,0.6,0.4c0.2,0.3,0.3,0.4,0.6,0.6c0.3,0.2,0.2,0.3,0.8,0.7c0.7,0.4,0.6,0.3,1,0.5c0.5,0.2,0.4,0.2,1,0.4
	c0.7,0.2,0.7,0.2,1.3,0.4c0.7,0.2,0.7,0.1,1,0.3c0.3,0.2,0.3,0.1,0.8,0.3c0.6,0.2,0.7,0.1,1.2,0.3c0.5,0.2,0.6,0.2,1,0.2
	c0.5,0,0.6,0.1,1.2,0c0.7-0.1,0.8-0.2,1.3-0.3c0.5-0.1,0.9-0.1,1.4-0.3c0.5-0.2,0.7-0.3,1.1-0.4c0.5-0.1,1.1-0.3,1.6-0.5
	c0.5-0.2,1.1-0.4,1.4-0.6c0.3-0.2,0.7-0.5,1-0.7c0.4-0.3,0.8-0.8,1.1-1c0.3-0.2,0.7-0.2,1-0.6c0.4-0.4,0.7-1,1-1.2
	c0.4-0.2,0.8-0.9,0.9-1.2c0.1-0.3,0.4-0.6,0.6-0.8c0.2-0.3,0.3-0.6,0.5-0.8c0.2-0.3,0.4-0.7,0.6-0.9c0.2-0.3,0.4-0.6,0.5-0.9
	c0.1-0.4,0.1-0.7,0.3-1.2c0.2-0.5,0.1-0.7,0.3-0.9c0.2-0.3,0.3-0.8,0.3-1c0-0.2,0.1-0.1,0.2-0.6c0.1-0.5,0-0.6,0.1-0.9
	c0.1-0.4,0.3-0.8,0.3-1c0-0.2,0-0.9,0.1-1.1c0.1-0.2,0.2-0.6,0.2-0.7C233.5,26.5,233.4,25.6,233.4,25.3"/>
<path class="st0" d="M253.4,19.8c0,0.3,0,0.4-0.1,0.6c-0.1,0.2-0.2,0.7-0.3,0.9c-0.1,0.2-0.3,0.7-0.5,0.8c-0.2,0.1-0.3,0.1-0.4,0.3
	c-0.1,0.2-0.3,0.3-0.4,0.4c-0.1,0.1-0.3,0.4-0.4,0.5c-0.1,0.1-0.2,0.4-0.4,0.4c-0.2,0-0.3,0.1-0.5,0.2c-0.2,0.1-0.3,0.1-0.5,0.3
	c-0.2,0.2-0.2,0.1-0.5,0.2c-0.3,0.1-0.6,0.2-0.7,0.2c-0.2,0-0.9,0-1,0.1c-0.1,0.1-3.2,0-3.5,0c-0.4,0-0.4-0.1-0.6,0
	c-0.2,0.1-0.4,0.2-0.5,0.2c-0.1,0-0.4,0.1-0.5,0.1s-0.2,0-0.4-0.1c-0.2-0.1-0.4-0.2-0.4-0.5s-0.1-0.7,0-0.7c0.1-0.1,0.1-0.3,0.1-0.4
	c0-0.1,0.1-0.1,0.1-0.3s-0.1-0.7-0.1-0.7c0-0.1,0.1-0.3,0.1-0.6v-5.3c0-0.2-0.1-0.2-0.1-0.4v-0.4c0-0.1-0.1-0.1-0.1-0.2
	c0-0.1-0.1-0.3,0-0.4c0.2-0.2,0.2-0.4,0.4-0.4c0.2,0,0.2,0.1,0.4,0c0.2-0.1,0.3-0.1,0.5,0c0.2,0.1,0.7,0,0.7,0h4.7
	c0.5,0,0.6,0.1,0.7,0.1h0.5c0.2,0,0.2,0.1,0.4,0.1s0.2,0.1,0.5,0.1c0.3,0,0.6,0.3,0.7,0.4c0.1,0.1,0.1-0.1,0.3,0.1
	c0.2,0.2,0.2,0.4,0.4,0.4c0.2,0,0.1,0.1,0.3,0.3c0.2,0.2,0.3,0.1,0.4,0.3c0.1,0.2,0.1,0.4,0.3,0.5c0.2,0.1,0.3,0.5,0.3,0.7
	s0.1,0.4,0.2,0.6c0.1,0.2,0.2,0.7,0.2,1C253.6,19.3,253.4,19.5,253.4,19.8 M260,42.2c-0.1-0.1-0.2-0.1-0.2-0.3s-0.1-0.4-0.2-0.5
	c-0.1-0.1-0.2-0.1-0.3-0.3c-0.1-0.2,0-0.3-0.1-0.5c-0.1-0.2-0.2-0.6-0.3-0.8c-0.1-0.3-0.1-0.5-0.1-0.6c0-0.1-0.1-0.6-0.1-0.7
	c0-0.1,0-0.2-0.1-0.4c-0.1-0.2,0-0.3,0-0.5v-0.7c0-0.2,0-0.7-0.1-0.9c-0.1-0.2-0.1-0.2-0.1-0.5c0-0.3-0.1-0.7,0-0.9
	c0.1-0.3,0-0.7,0-0.9c0-0.2-0.2-0.5-0.2-0.7v-0.5c0-0.3-0.1-0.7-0.1-0.9c0-0.3,0-0.7-0.1-1c-0.1-0.3-0.2-0.4-0.2-0.6
	c0-0.2-0.2-0.6-0.3-0.7c-0.1-0.1-0.3-0.3-0.3-0.4c0-0.1-0.2-0.4-0.3-0.5c-0.1-0.1-0.4-0.4-0.5-0.5c-0.1-0.1-0.1-0.2-0.3-0.3
	c-0.2-0.1-0.5-0.2-0.6-0.3c-0.1-0.1-0.3-0.3-0.5-0.4c-0.2-0.1-0.2-0.1-0.3-0.2c-0.1-0.1-0.2-0.2-0.2-0.4s0.1-0.2,0.2-0.3
	c0.1-0.1,0.1-0.2,0.2-0.3c0.1-0.1,0.5-0.3,0.6-0.4c0.1-0.1,0.2-0.3,0.3-0.4c0.1-0.1,0.3-0.3,0.5-0.4c0.2-0.1,0.4-0.2,0.5-0.3
	c0.1-0.1,0.3-0.3,0.5-0.5c0.2-0.2,0.3-0.5,0.4-0.7c0.1-0.2,0.4-0.4,0.4-0.6c0-0.2,0.1-0.4,0.3-0.7c0.2-0.3,0.2-0.3,0.2-0.5
	c0-0.2,0.1-0.6,0.2-0.7c0.1-0.1,0.2-0.5,0.2-0.7c0-0.3-0.1-0.5,0.1-0.6c0.2-0.1,0.3-0.1,0.3-0.3s0.1-0.5,0.1-0.7s0.1-0.5,0.1-0.7
	c0-0.2-0.1-0.3-0.1-0.5v-0.3c0-0.2-0.1-0.3-0.2-0.5c-0.1-0.2-0.1-0.3-0.1-0.4c0-0.1,0.1-0.5-0.1-0.6c-0.2-0.1-0.1-0.3-0.2-0.4
	c-0.1-0.1,0-0.4-0.2-0.6s-0.1-0.5-0.2-0.6c-0.1-0.1-0.1-0.2-0.2-0.4c-0.1-0.2-0.2-0.3-0.3-0.5c-0.1-0.2-0.1-0.1-0.2-0.4
	c-0.1-0.3-0.2-0.3-0.4-0.5c-0.2-0.2-0.2-0.1-0.3-0.3c-0.1-0.2-0.3-0.2-0.4-0.4c-0.1-0.2-0.4-0.2-0.5-0.4c-0.1-0.2-0.2-0.2-0.4-0.4
	c-0.2-0.2-0.6-0.4-0.7-0.5c-0.1-0.1,0,0-0.2-0.2c-0.2-0.2-0.1-0.2-0.4-0.3c-0.3-0.1-0.5-0.1-0.7-0.2c-0.2-0.1-0.2-0.2-0.4-0.3
	c-0.2-0.1-0.4-0.2-0.6-0.2c-0.2,0-0.4-0.2-0.5-0.2c-0.1,0-0.4-0.1-0.7-0.1c-0.3,0-0.4,0.2-0.6,0c-0.2-0.2-0.5,0-0.7-0.1
	c-0.3-0.1-0.4-0.1-0.7-0.2c-0.3-0.1-0.4-0.1-0.7-0.1h-11.2c-0.4,0-0.2-0.1-0.4-0.1c-0.1,0-0.2-0.1-0.4-0.1h-0.3h0h-0.1
	c-0.3,0-0.2-0.1-0.4,0c-0.2,0.1-0.4,0.2-0.5,0.3c-0.1,0.1-0.3,0.2-0.3,0.3c0,0.1,0,0.2-0.1,0.5c-0.1,0.3,0,0.3,0,0.6
	c0,0.3,0.1,0.2,0.1,0.5v30.4c0,0.7-0.1,0.7-0.1,0.8c0,0.2,0.2,0.4,0.2,0.5c0,0.1,0.1,0.2,0.3,0.3c0.2,0.1,0.2,0.2,0.4,0.2h0.6h3.8
	c0.2,0,0.4-0.2,0.5-0.2c0.1,0,0.2-0.1,0.3-0.2c0.1-0.1,0.1-0.2,0.2-0.4c0.1-0.2,0.1-0.2,0.1-0.5V32.1c0-0.6,0-0.6-0.1-0.7
	c-0.1-0.2,0.1-0.3,0-0.5c-0.1-0.1-0.1-0.1-0.1-0.2c0-0.1-0.1-0.1-0.1-0.3s0-0.1,0.1-0.3c0.1-0.2,0.1-0.3,0.2-0.4
	c0.1-0.1,0.2-0.1,0.3-0.1h0.2c0.1,0,0.2,0.1,0.3,0c0.1-0.1,0.2,0,0.4,0h0.5c0.2,0,0.2-0.1,0.4-0.1c0.1,0,0.2,0.1,0.3,0.1h0.4
	c0.1,0,0.2-0.1,0.4-0.1c0.2,0,0.3,0.1,0.4,0.1c0.1,0,0.2,0.1,0.3,0s0.2-0.1,0.3-0.1h0.7c0.2,0,0.2-0.1,0.4,0
	c0.2,0.1,0.2,0.1,0.3,0.1h0.5h0.4c0.2,0,0.5-0.1,0.7,0s0.2,0.1,0.4,0.1c0.2,0,0.4,0.1,0.5,0.1h0.3c0.1,0,0.1,0.1,0.2,0.1
	c0.1,0,0.3,0.1,0.4,0.1c0.1,0,0.2,0,0.3,0.1c0.1,0.1,0.4,0.4,0.5,0.4c0.1,0,0,0.2,0.2,0.3c0.2,0.1,0.4,0.4,0.4,0.5
	c0,0.1,0.3,0.6,0.3,0.7c0,0.2,0.1,0.3,0.1,0.4v0.3c0,0,0.1,0.1,0.1,0.2v0.3c0,0.2,0.1,0.2,0.1,0.3v0.2v0.3c0,0.1-0.1,0.1,0,0.3
	s0.1,0.2,0.1,0.3v0.3V35v0.2v0.2v0.3v0.3v0.3c0,0-0.1,0.1,0,0.3c0.1,0.2,0,0.3,0,0.3s-0.1,0.1,0,0.2c0.1,0.1-0.1,0.3,0,0.4
	c0.1,0.1-0.1,0.3,0,0.4c0.1,0.1,0.1,0.1,0.1,0.2c0,0.1,0.1,0.1,0.1,0.2s0.1,0.1,0.1,0.2c0,0.1,0.1,0.1,0.1,0.2v0.1v0.1
	c0,0.1-0.1,0.5-0.1,0.6v0.2v0.1c0,0.1,0.1,0.1,0.1,0.2c0,0.1-0.1,0.3,0,0.4c0.1,0.1,0.2,0.3,0.2,0.5c0,0.2-0.1,0.2,0,0.3
	c0.1,0.1,0.1,0.3,0.1,0.4c0,0.1,0,0.4,0.1,0.5c0.1,0.1,0,0.3,0,0.4v0.3c0,0.1,0.2,0.4,0.2,0.4s0.1,0.1,0.1,0.2
	c0,0.1-0.1,0.2,0.2,0.4c0.3,0.2,0.2,0.1,0.3,0.2c0.1,0.1,0.1,0.1,0.3,0.1c0.2,0,0.3,0.1,0.4,0.1c0.1,0,0.1,0.1,0.3,0
	c0.2-0.1,0.3-0.1,0.4-0.1c0.1,0,0-0.1,0.2,0c0.2,0.1,0.3,0,0.4,0c0.1,0,0.2-0.1,0.3,0c0.1,0.1,0.2,0.1,0.3,0.1
	c0.1,0,0.3-0.1,0.4-0.1c0.1,0,0.3,0.1,0.4,0.1h0.2c0.2,0,0.1,0.1,0.3,0c0.2-0.1,0.4,0,0.5,0h0.2c0.2,0,0.4-0.1,0.5-0.1
	c0.1,0,0.2,0.1,0.4,0.1s0.1-0.1,0.3-0.1c0.2,0,0.4-0.2,0.5-0.2s0.1-0.1,0.1-0.3v-0.4C260.1,42.4,260.1,42.3,260,42.2"/>
<path class="st0" d="M265.3,9.5c-0.5,0-0.7-0.1-0.9-0.1s-0.2,0.1-0.5,0.1c-0.3,0-0.3,0.1-0.6,0.1c-0.3,0-0.3,0.3-0.4,0.6
	c-0.1,0.3,0,0.4,0,0.7c0,0.3,0,0.5-0.1,0.8c-0.1,0.4,0.1,0.6,0.1,0.8v0.9v25.7c0,0.9-0.1,0.6,0,0.9c0.1,0.4,0,0.7,0,0.8
	s-0.1,0.4-0.1,0.7c0,0.3-0.2,0.4-0.1,0.7c0.1,0.4,0,0.5,0.3,0.7c0.3,0.3,0.3,0.3,0.8,0.3c0.6,0,0.7-0.1,1.1-0.1c0.5,0,0.5,0,0.7,0.1
	c0.3,0.1,0.3,0,0.7,0c0.4,0,0.4-0.1,0.7-0.1h19.2c0.8,0,1.2,0,1.5,0.1c0.3,0.1,0.5,0,0.6,0c0.1,0,0.1-0.1,0.4-0.1
	c0.3,0,0.2-0.2,0.5-0.3c0.3-0.1,0.5-0.2,0.6-0.5c0.1-0.3,0.1-0.6,0-0.8c-0.1-0.3-0.2-0.4-0.1-0.7c0.1-0.3,0-0.8,0-0.9
	c0-0.1-0.1-0.3,0-0.5c0.1-0.2,0.1-0.7,0.1-0.8c0-0.2-0.2-0.2-0.3-0.5c-0.1-0.3-0.4-0.3-0.5-0.4c-0.1-0.1-0.1,0-0.6,0h-15.8
	c-1.1,0-1.2-0.2-1.4-0.1c-0.2,0.1-0.3,0-0.5,0h-0.4c-0.1,0,0,0-0.3-0.2c-0.3-0.2-0.5-0.2-0.5-0.4s0.1-0.4,0.2-0.7
	c0.1-0.4-0.1-1-0.1-1.2v-0.6v-0.5c0-0.2,0.1-1.1,0.1-1.4c0-0.3-0.1-0.4,0-0.6c0.1-0.2,0-0.7,0-1.2c0-0.6-0.1-1.4,0-1.6
	c0.1-0.2,0-0.4-0.1-0.6c-0.1-0.2-0.1-0.3,0-0.5c0.1-0.2-0.1-0.4,0.2-0.6c0.3-0.2,0.4-0.4,0.7-0.3c0.3,0.1,0.5,0.1,0.7,0.1h8.6
	c0.4,0,0.7,0.2,0.7,0.1c0.1-0.1,0.4-0.1,0.4-0.1s0.1,0,0.3-0.1c0.2-0.1,0.3-0.3,0.4-0.4c0.1-0.1,0.1-0.4,0.1-0.7
	c0-0.3-0.1-0.3,0-0.5c0.1-0.2,0.1-0.5,0.1-0.7v-0.8v-1.1c0-0.3-0.1-0.4-0.2-0.6c-0.1-0.2-0.1-0.2-0.3-0.4s-0.3-0.3-0.5-0.2
	c-0.2,0.1-0.4,0.2-0.6,0.1c-0.2-0.1-0.3,0-0.5,0h-0.6c-0.2,0-0.2,0.1-0.4,0.1c-0.2,0-0.3,0.1-0.5,0.1s-0.4-0.1-0.6-0.1h-0.3
	c-0.2,0-0.7-0.1-0.9,0c-0.2,0.1-0.6,0-0.7,0h-2.1c-1,0-1.8,0.1-2,0.1c-0.3,0-0.5-0.1-0.6,0c-0.1,0.1-0.6,0-0.7,0s-0.7-0.2-0.7-0.2
	c-0.1,0-0.2-0.1-0.2-0.4c0-0.3,0.1-0.4,0.2-0.7c0.1-0.3,0.1-0.9,0.1-1.1v-0.6v-0.6v-0.7c0-0.3,0.1-0.3,0.1-0.7
	c0-0.4-0.1-0.7-0.1-0.8v-0.4c0-0.1,0.1-0.3,0-0.5c-0.1-0.2-0.2-0.3-0.2-0.6s0-0.5,0.1-0.7c0.1-0.2,0.3-0.3,0.4-0.3
	c0.1,0,0.2,0,0.4,0.1c0.2,0.1,0.4,0.2,0.5,0.1c0.1-0.1,0.4-0.1,0.5-0.1c0.1,0,0.1-0.1,0.3,0c0.2,0.1,0.4,0,0.6,0h7.7h5.4
	c0.6,0,0.7-0.1,0.9-0.1h0.5c0.2,0,0.2,0.1,0.5,0.1c0.3,0,0.4-0.1,0.6-0.1s0.2-0.2,0.4-0.3c0.2-0.1,0.3-0.2,0.4-0.4s0-0.7,0-0.8V13
	c0-0.2-0.1-0.4,0-0.6c0.1-0.2,0-0.5,0-0.7c0-0.2-0.1-0.3,0-0.6s0-0.4,0-0.6s0.1-0.3,0-0.6c-0.1-0.3-0.1-0.4-0.3-0.4
	c-0.2,0-0.2-0.2-0.6-0.2h-0.7c-0.1,0-0.2,0.1-0.6,0c-0.4-0.1-0.7,0-0.8,0c-0.2,0-0.4,0.1-0.7,0s-0.7,0-0.9,0h-15.3h-1.4
	c-0.4,0-0.5-0.1-0.7-0.1c-0.2,0-0.7-0.1-0.9,0C265.7,9.5,265.7,9.5,265.3,9.5"/>
<path class="st0" d="M304.5,8.9h-0.7c-0.3,0-0.5,0.1-0.8,0c-0.4-0.1-0.6-0.1-0.8,0c-0.3,0.1-0.5,0.2-0.7,0.2c-0.3,0-0.7,0.1-0.8,0.1
	c-0.2,0-0.2,0.1-0.6,0.2c-0.4,0.1-0.6,0.3-0.9,0.3c-0.4,0-1,0.3-1.4,0.5c-0.4,0.2-0.4,0.4-0.7,0.5c-0.4,0.1-0.6,0.3-0.7,0.5
	c-0.2,0.2-0.8,0.7-1.2,0.9c-0.4,0.2-0.5,0.3-0.7,0.6c-0.2,0.3-0.6,0.4-0.7,0.6c-0.1,0.2-0.3,0.3-0.5,0.8c-0.2,0.6-0.5,0.6-0.7,1
	c-0.2,0.5-0.6,1.1-0.7,1.5c-0.1,0.4-0.2,0.4-0.1,1.2c0.1,0.8-0.1,0.9-0.1,1.3c0,0.4,0.1,0.5,0.3,1.1c0.2,0.7-0.1,0.7,0.1,1.2
	c0.2,0.6,0.1,0.6,0.4,1c0.3,0.5,0.5,0.7,0.6,1c0.1,0.3,0.3,0.5,0.7,0.8c0.4,0.4,0.5,0.6,0.8,0.8c0.4,0.3,0.7,0.4,1.1,0.7
	c0.5,0.4,0.5,0.5,0.7,0.7s0.7,0.2,1,0.4c0.3,0.2,0.9,0.5,1.2,0.7c0.3,0.2,0.2,0.1,0.7,0.2c0.5,0.1,0.7,0.1,0.9,0.2
	c0.3,0.1,0.7,0.2,1.2,0.3c0.6,0.1,0.7,0.1,0.9,0.3c0.3,0.2,0.2,0.3,0.6,0.3c0.4,0,0.8,0.2,1,0.3c0.2,0.1,0.2,0.3,0.7,0.3
	s1-0.1,1.4,0.1c0.4,0.2,0.5,0.2,0.7,0.3c0.3,0.1,0.9,0.4,1.4,0.5c0.5,0.1,0.3-0.1,0.7,0.1c0.4,0.2,0.7,0.3,1,0.6
	c0.3,0.3,0.4,0.2,0.7,0.5c0.3,0.3,0.7,0.7,0.8,0.9c0.1,0.3,0.4,0.3,0.5,0.6c0.1,0.3,0.3,0.5,0.3,0.8c0,0.4,0,0.8-0.1,1.1
	c-0.1,0.3-0.1,0.5-0.3,0.8c-0.2,0.4-0.3,0.6-0.5,0.8c-0.2,0.3-0.1,0.3-0.6,0.7c-0.5,0.4-0.3,0.5-0.7,0.7s-0.8,0.3-1.1,0.5
	c-0.3,0.2-0.4,0.2-0.7,0.3c-0.4,0.1-0.5,0-0.9,0.1c-0.5,0.1-0.6,0-1.2,0.1c-0.7,0.1-1,0.1-1.5,0.1c-0.5,0-1.1,0.1-1.5-0.1
	c-0.4-0.2-0.7-0.2-0.9-0.3c-0.3-0.1-0.7-0.1-1-0.2c-0.3-0.1-0.4-0.1-0.9-0.5c-0.6-0.4-0.9-0.6-1.3-0.9c-0.4-0.4-0.3-0.6-0.6-0.7
	c-0.3-0.2-0.6-0.3-0.8-0.7c-0.3-0.4-0.4-0.7-0.7-1.1c-0.3-0.5-0.5-0.6-0.6-0.8c-0.1-0.3-0.1-0.4-0.2-0.6c-0.1-0.2-0.3-0.4-0.4-0.5
	c-0.1-0.1-0.5,0-0.6,0.2c-0.1,0.2-0.1,0.3-0.3,0.3c-0.2,0-0.4,0-0.6,0.1c-0.2,0.1-0.5,0.1-0.7,0.1c-0.3,0-0.1,0.1-0.5,0.2
	s-0.7-0.1-1.1,0.1c-0.4,0.2-0.6,0.4-0.9,0.4c-0.4,0-0.5,0.2-0.7,0.3c-0.2,0.1-0.4,0-0.6,0.3c-0.2,0.3,0,0.3,0.2,0.7
	c0.2,0.4,0.4,0.6,0.5,0.8c0.1,0.3,0.1,0.6,0.4,0.8c0.3,0.3,0.5,0.6,0.7,0.9c0.2,0.4,0.3,0.9,0.7,1.1s0.5,0.3,0.7,0.7
	c0.3,0.4,0.2,0.4,0.6,0.7c0.4,0.3,0.6,0.5,0.9,0.8c0.4,0.4,0.6,0.4,0.9,0.7c0.4,0.3,0.5,0.5,0.7,0.7c0.3,0.2,0.3,0.2,0.7,0.5
	c0.4,0.3,0.5,0.1,0.8,0.4c0.4,0.3,0.3,0.3,0.8,0.4c0.6,0.1,0.9,0,1.2,0.2c0.3,0.2,0.5,0.2,0.8,0.3c0.4,0.1,0.8,0.2,1.1,0.3
	c0.3,0.1,0.2,0,0.6,0.2c0.4,0.2,0.7,0.2,1.2,0.3c0.5,0.1,0.7-0.1,1.5,0c0.8,0.1,1.7,0.1,2,0c0.4-0.1,0.8-0.4,1.3-0.4
	c0.5,0,0.6-0.1,0.9-0.2c0.4-0.1,0.6-0.2,0.9-0.1c0.4,0.1,0.5-0.3,0.7-0.3c0.3,0,0.4-0.2,0.8-0.2c0.5,0,0.7-0.1,0.9-0.3
	c0.2-0.2,0.6-0.5,0.9-0.7c0.4-0.2,0-0.3,0.6-0.6c0.6-0.3,0.7-0.6,1-0.7c0.3-0.1,0.7-0.6,1-0.9c0.3-0.4,0.6-0.5,0.8-0.7
	c0.3-0.3,0.6-0.9,0.8-1.2c0.3-0.3,0.3-0.6,0.5-0.8c0.2-0.3,0.1-0.7,0.3-1c0.2-0.4,0.3-0.9,0.5-1.3c0.2-0.4,0.3-1.4,0.2-1.9
	c-0.1-0.5,0-1-0.1-1.5c-0.1-0.5-0.5-1.5-0.7-2c-0.2-0.5-0.2-0.5-0.5-0.9c-0.3-0.5-0.5-0.7-0.8-1.2c-0.4-0.6-0.7-0.7-1-0.9
	c-0.3-0.3-0.8-0.7-1.2-0.9c-0.4-0.3-0.6-0.5-0.8-0.6c-0.3-0.1-0.4-0.1-0.7-0.4c-0.4-0.3-0.9-0.3-1.3-0.5c-0.4-0.2-0.6-0.3-1-0.5
	s-1-0.5-1.6-0.5c-0.6,0-0.5,0-0.8-0.1c-0.4-0.1-0.7-0.2-1.3-0.4c-0.6-0.2-1.6-0.3-2-0.4c-0.4-0.1-0.8-0.1-1.2-0.2
	c-0.4-0.1-0.7-0.2-0.9-0.2c-0.2,0,0.1-0.1-0.4-0.2c-0.5-0.1-0.7,0-0.8-0.2c-0.2-0.2-0.7-0.4-1-0.5c-0.3-0.1-0.5-0.1-0.7-0.4
	c-0.3-0.3-0.6-0.5-0.7-0.7s-0.5-0.3-0.6-0.7c-0.1-0.4-0.1-0.8-0.2-1.1c-0.1-0.3,0-0.4,0-0.8c0-0.5-0.1-1.1,0.3-1.5
	c0.4-0.4,0.4-0.3,0.7-0.6c0.3-0.3,0.5-0.7,0.8-0.7c0.4-0.1,0.4-0.1,0.8-0.2c0.5-0.1,0.7-0.1,0.9-0.2c0.3-0.1,0.8-0.3,1-0.3
	c0.2,0,0.2-0.2,0.5-0.1c0.3,0.1,0.6,0,0.7,0c0.2,0,0.2-0.1,0.5,0c0.3,0.1,0.6,0.2,0.8,0.2c0.3,0,0.6,0,0.8,0.1s0.4,0.1,0.7,0.2
	c0.4,0.1,0.6,0.1,0.8,0.2c0.3,0.1,0.6,0.2,0.7,0.3c0.2,0.1,0.3,0.1,0.6,0.2c0.3,0.1,0.5,0.2,0.6,0.5c0.1,0.3,0.6,0.6,0.7,0.7
	c0.1,0.1,0.1,0.3,0.3,0.5c0.2,0.2,0.5,0.2,0.6,0.5c0.1,0.3,0.3,0.3,0.5,0.6s0.2,0.4,0.3,0.6c0.1,0.2,0.1,0.1,0.3,0.3
	c0.2,0.2,0.3,0.2,0.7,0.2c0.5,0,0.7-0.1,0.9-0.2c0.2-0.1,0.3,0,0.6-0.1c0.3-0.1,0.3,0,0.6-0.1c0.3-0.1,0.7-0.1,0.8-0.3
	c0.2-0.2,0.2-0.1,0.6-0.2c0.4-0.1,0.7-0.3,0.8-0.3c0.2,0,0.3,0,0.4-0.2c0.1-0.2,0.5-0.4,0.5-0.7s-0.3-0.3-0.4-0.6
	c-0.1-0.3-0.3-0.5-0.4-0.7c-0.1-0.2-0.3-0.7-0.6-1c-0.3-0.3-0.4-0.2-0.6-0.6c-0.2-0.4-0.3-0.4-0.5-0.6c-0.2-0.2-0.5-0.2-0.6-0.5
	c-0.1-0.3-0.1-0.4-0.5-0.7c-0.4-0.3-0.6-0.3-0.8-0.6c-0.3-0.3-0.4-0.4-0.7-0.6s-0.7-0.3-0.8-0.5c-0.2-0.2-0.2-0.2-0.6-0.4
	c-0.4-0.2-1.1-0.5-1.6-0.7c-0.5-0.2-0.7-0.2-0.9-0.3c-0.2-0.1-0.4-0.3-0.7-0.3c-0.4,0-0.5-0.2-0.7-0.3c-0.3-0.1-0.5-0.2-0.7-0.2
	s-0.7,0-0.9-0.1c-0.3-0.1-0.3-0.1-0.6-0.1c-0.3,0-0.5,0.1-0.7,0.1C304.8,8.8,304.9,8.9,304.5,8.9"/>
<path class="st0" d="M319.3,9.5c-0.3,0-0.2,0-0.4,0.1c-0.2,0.1-0.4,0.1-0.5,0.2c-0.1,0.1-0.3,0.3-0.3,0.5v0.5c0,0.2-0.1,0.2,0,0.5
	c0.1,0.3,0,0.2,0.1,0.5c0.1,0.3,0.1,0.5,0,0.7c-0.1,0.3,0,0.4,0,0.6s-0.1,0.1-0.1,0.5c0,0.4-0.1,0.4,0,0.7c0.1,0.3,0.3,0.3,0.3,0.6
	c0,0.3,0.2,0.1,0.4,0.3c0.2,0.2,0.1,0.3,0.4,0.3c0.3,0,0.4,0.1,0.7,0c0.3-0.1,0.2-0.3,0.6-0.2c0.4,0.1,0.3,0.1,0.6,0.1h0.7h5.8
	c0.6,0,0.7-0.1,0.8-0.2c0.2-0.1,0.3-0.1,0.5,0c0.2,0.1,0,0.1,0.3,0.2c0.3,0.1,0.3,0,0.5,0.2c0.2,0.2,0.1,0.3,0.1,0.5
	s-0.2,0.1-0.2,0.4c0,0.3,0.3,0.7,0.2,1c-0.1,0.3-0.3,0.2-0.2,0.5c0.1,0.3,0.1,0.6,0.1,0.8c0,0.3,0.1,1,0,1.5
	c-0.1,0.5-0.2,0.7-0.2,0.9c0,0.3,0.1,0.5,0.2,0.7c0.1,0.3-0.1,0.4,0,0.7c0.1,0.4,0,5.3,0,6.7c0,1.4,0,2-0.1,2.7
	c-0.1,0.7,0,0.9,0,1.2c0,0.3-0.1,0.7-0.1,1.1c0,0.4,0.1,0.6,0.1,1v1.3c0,0.4-0.1,0.6,0,1c0.1,0.5,0.2,0.7,0.2,1.1
	c0,0.5-0.1,0.7-0.1,0.9v0.9c0,0.3,0,0.4-0.1,0.6c-0.1,0.2-0.1,0.6-0.1,0.7c0,0.2-0.2,0.3-0.2,0.5s-0.2,0.4-0.1,0.6
	c0.1,0.2,0.2,0.4,0.4,0.5c0.2,0.1,5.1,0,5.4,0h1c0.2,0,0.4-0.4,0.5-0.6c0.1-0.2,0-0.3,0-0.5s0-0.2-0.1-0.5c-0.1-0.3-0.2-0.4-0.1-0.7
	c0.1-0.3,0-0.3,0-0.5c0-0.2,0.1-0.8,0-1.1c-0.1-0.3-0.1-0.3-0.1-0.6v-0.6v-0.7c0-0.1,0.1-0.4,0.1-0.4V21.6v-4.7
	c0-0.4-0.1-0.4-0.1-0.6v-0.5c0-0.1,0-0.4,0.1-0.6c0.1-0.2,0.1-0.3,0.3-0.3s0.5,0,0.6-0.1c0.1-0.1,0.4-0.1,0.5,0c0.1,0.1,0,0,0.4,0.1
	c0.4,0.1,0.6-0.1,0.8,0c0.3,0.1,0.2,0.1,0.5,0.1h5.8c0.6,0,1,0.1,1.3,0s0.3,0,0.5-0.1c0.2-0.1,0.3-0.3,0.4-0.5
	c0.1-0.2,0.1-0.2,0.2-0.4c0.1-0.2,0-0.4,0-0.6v-0.5c0-0.3,0.2-0.4,0.1-0.7c-0.1-0.3,0-0.4,0-0.7c0-0.3-0.1-0.3-0.1-0.7
	c0-0.4-0.2-0.4-0.1-0.7c0.1-0.3,0.1-0.3,0-0.6c-0.1-0.3-0.5-0.4-0.7-0.5c-0.2-0.1-0.4-0.2-0.5-0.1c-0.1,0.1-0.5,0-0.6,0
	s-0.2,0.1-0.4,0.1h-0.6h-14.8H321h-1h-0.4H319.3z"/>
</svg>
